<?xml version="1.0" encoding="UTF-8" standalone="no"?>
<!DOCTYPE svg PUBLIC "-//W3C//DTD SVG 1.1//EN"
 "http://www.w3.org/Graphics/SVG/1.1/DTD/svg11.dtd">
<!-- Generated by graphviz version 2.38.0 (20140413.2041)
 -->
<!-- Title: arpeggio_graph Pages: 1 -->
<svg width="1717pt" height="2084pt"
 viewBox="0.00 0.00 1716.68 2083.74" xmlns="http://www.w3.org/2000/svg" xmlns:xlink="http://www.w3.org/1999/xlink">
<g id="graph0" class="graph" transform="scale(1 1) rotate(0) translate(4 2079.74)">
<title>arpeggio_graph</title>
<polygon fill="white" stroke="none" points="-4,4 -4,-2079.74 1712.68,-2079.74 1712.68,4 -4,4"/>
<!-- 2800816582032 -->
<g id="node1" class="node"><title>2800816582032</title>
<ellipse fill="none" stroke="black" cx="1542.68" cy="-2057.74" rx="87.9851" ry="18"/>
<text text-anchor="middle" x="1542.68" y="-2054.04" font-family="Times New Roman,serif" font-size="14.00">entrypoint=Sequence</text>
</g>
<!-- 2800816582320 -->
<g id="node2" class="node"><title>2800816582320</title>
<ellipse fill="none" stroke="black" cx="1089.68" cy="-1970.74" rx="75.2868" ry="18"/>
<text text-anchor="middle" x="1089.68" y="-1967.04" font-family="Times New Roman,serif" font-size="14.00">text=ZeroOrMore</text>
</g>
<!-- 2800816582032&#45;&gt;2800816582320 -->
<g id="edge1" class="edge"><title>2800816582032&#45;&gt;2800816582320</title>
<path fill="none" stroke="black" d="M1480.17,-2045.01C1395.3,-2029.09 1244.23,-2000.74 1156.96,-1984.37"/>
<polygon fill="black" stroke="black" points="1157.38,-1980.88 1146.91,-1982.48 1156.09,-1987.76 1157.38,-1980.88"/>
<text text-anchor="middle" x="1347.18" y="-2010.54" font-family="Times New Roman,serif" font-size="14.00">1</text>
</g>
<!-- 2800816612928 -->
<g id="node48" class="node"><title>2800816612928</title>
<ellipse fill="none" stroke="black" cx="1600.68" cy="-1592.87" rx="28.6953" ry="18"/>
<text text-anchor="middle" x="1600.68" y="-1589.17" font-family="Times New Roman,serif" font-size="14.00">EOF</text>
</g>
<!-- 2800816582032&#45;&gt;2800816612928 -->
<g id="edge67" class="edge"><title>2800816582032&#45;&gt;2800816612928</title>
<path fill="none" stroke="black" d="M1612.88,-2046.74C1655.48,-2036.26 1701.68,-2014.94 1701.68,-1971.74 1701.68,-1971.74 1701.68,-1971.74 1701.68,-1708.74 1701.68,-1665.18 1660.21,-1630.28 1630.42,-1610.83"/>
<polygon fill="black" stroke="black" points="1631.94,-1607.65 1621.61,-1605.29 1628.22,-1613.58 1631.94,-1607.65"/>
<text text-anchor="middle" x="1705.18" y="-1836.54" font-family="Times New Roman,serif" font-size="14.00">2</text>
</g>
<!-- 2800816582512 -->
<g id="node3" class="node"><title>2800816582512</title>
<ellipse fill="none" stroke="black" cx="1089.68" cy="-1883.74" rx="66.8882" ry="18"/>
<text text-anchor="middle" x="1089.68" y="-1880.04" font-family="Times New Roman,serif" font-size="14.00">OrderedChoice</text>
</g>
<!-- 2800816582320&#45;&gt;2800816582512 -->
<g id="edge2" class="edge"><title>2800816582320&#45;&gt;2800816582512</title>
<path fill="none" stroke="black" d="M1089.68,-1952.54C1089.68,-1940.9 1089.68,-1925.29 1089.68,-1911.98"/>
<polygon fill="black" stroke="black" points="1093.18,-1911.92 1089.68,-1901.92 1086.18,-1911.92 1093.18,-1911.92"/>
<text text-anchor="middle" x="1093.18" y="-1923.54" font-family="Times New Roman,serif" font-size="14.00">1</text>
</g>
<!-- 2800816611776 -->
<g id="node4" class="node"><title>2800816611776</title>
<ellipse fill="none" stroke="black" cx="762.681" cy="-1796.74" rx="94.4839" ry="18"/>
<text text-anchor="middle" x="762.681" y="-1793.04" font-family="Times New Roman,serif" font-size="14.00">oneLineTag=Sequence</text>
</g>
<!-- 2800816582512&#45;&gt;2800816611776 -->
<g id="edge3" class="edge"><title>2800816582512&#45;&gt;2800816611776</title>
<path fill="none" stroke="black" d="M1043.18,-1870.65C986.27,-1855.86 889.655,-1830.75 826.002,-1814.2"/>
<polygon fill="black" stroke="black" points="826.639,-1810.75 816.08,-1811.62 824.878,-1817.52 826.639,-1810.75"/>
<text text-anchor="middle" x="950.181" y="-1836.54" font-family="Times New Roman,serif" font-size="14.00">1</text>
</g>
<!-- 2800816614080 -->
<g id="node39" class="node"><title>2800816614080</title>
<ellipse fill="none" stroke="black" cx="1089.68" cy="-1323" rx="92.8835" ry="18"/>
<text text-anchor="middle" x="1089.68" y="-1319.3" font-family="Times New Roman,serif" font-size="14.00">tagSelected=Sequence</text>
</g>
<!-- 2800816582512&#45;&gt;2800816614080 -->
<g id="edge64" class="edge"><title>2800816582512&#45;&gt;2800816614080</title>
<path fill="none" stroke="black" d="M1089.68,-1865.48C1089.68,-1848.31 1089.68,-1821.2 1089.68,-1797.74 1089.68,-1797.74 1089.68,-1797.74 1089.68,-1409 1089.68,-1389.75 1089.68,-1368.05 1089.68,-1351.4"/>
<polygon fill="black" stroke="black" points="1093.18,-1351.26 1089.68,-1341.26 1086.18,-1351.26 1093.18,-1351.26"/>
<text text-anchor="middle" x="1093.18" y="-1589.17" font-family="Times New Roman,serif" font-size="14.00">2</text>
</g>
<!-- 2800816612688 -->
<g id="node49" class="node"><title>2800816612688</title>
<ellipse fill="none" stroke="black" cx="1335.68" cy="-1796.74" rx="81.4863" ry="18"/>
<text text-anchor="middle" x="1335.68" y="-1793.04" font-family="Times New Roman,serif" font-size="14.00">plainText=Optional</text>
</g>
<!-- 2800816582512&#45;&gt;2800816612688 -->
<g id="edge65" class="edge"><title>2800816582512&#45;&gt;2800816612688</title>
<path fill="none" stroke="black" d="M1129.2,-1869.08C1171.3,-1854.54 1238.1,-1831.46 1284.26,-1815.51"/>
<polygon fill="black" stroke="black" points="1285.48,-1818.79 1293.78,-1812.22 1283.19,-1812.17 1285.48,-1818.79"/>
<text text-anchor="middle" x="1239.18" y="-1836.54" font-family="Times New Roman,serif" font-size="14.00">3</text>
</g>
<!-- 2800816611968 -->
<g id="node5" class="node"><title>2800816611968</title>
<ellipse fill="none" stroke="black" cx="538.681" cy="-1709.74" rx="170.87" ry="18"/>
<text text-anchor="middle" x="538.681" y="-1706.04" font-family="Times New Roman,serif" font-size="14.00">beginOneLineTag=RegExMatch((?&lt;!\\|/)\[\[)</text>
</g>
<!-- 2800816611776&#45;&gt;2800816611968 -->
<g id="edge4" class="edge"><title>2800816611776&#45;&gt;2800816611968</title>
<path fill="none" stroke="black" d="M722.375,-1780.45C685.837,-1766.58 631.736,-1746.05 591.701,-1730.86"/>
<polygon fill="black" stroke="black" points="592.695,-1727.49 582.103,-1727.22 590.211,-1734.04 592.695,-1727.49"/>
<text text-anchor="middle" x="668.181" y="-1749.54" font-family="Times New Roman,serif" font-size="14.00">1</text>
</g>
<!-- 2800816611536 -->
<g id="node6" class="node"><title>2800816611536</title>
<ellipse fill="none" stroke="black" cx="357.681" cy="-1655.74" rx="55.4913" ry="18"/>
<text text-anchor="middle" x="357.681" y="-1652.04" font-family="Times New Roman,serif" font-size="14.00">OneOrMore</text>
</g>
<!-- 2800816611776&#45;&gt;2800816611536 -->
<g id="edge5" class="edge"><title>2800816611776&#45;&gt;2800816611536</title>
<path fill="none" stroke="black" d="M669.862,-1793.41C563.284,-1788.56 398.045,-1773.63 358.681,-1727.74 348.54,-1715.92 348.164,-1698.47 350.386,-1683.84"/>
<polygon fill="black" stroke="black" points="353.865,-1684.28 352.36,-1673.79 346.997,-1682.93 353.865,-1684.28"/>
<text text-anchor="middle" x="421.181" y="-1749.54" font-family="Times New Roman,serif" font-size="14.00">2</text>
</g>
<!-- 2800816611728 -->
<g id="node34" class="node"><title>2800816611728</title>
<ellipse fill="none" stroke="black" cx="807.681" cy="-1709.74" rx="42.4939" ry="18"/>
<text text-anchor="middle" x="807.681" y="-1706.04" font-family="Times New Roman,serif" font-size="14.00">Optional</text>
</g>
<!-- 2800816611776&#45;&gt;2800816611728 -->
<g id="edge43" class="edge"><title>2800816611776&#45;&gt;2800816611728</title>
<path fill="none" stroke="black" d="M771.787,-1778.54C778.172,-1766.48 786.82,-1750.14 794.027,-1736.53"/>
<polygon fill="black" stroke="black" points="797.156,-1738.1 798.741,-1727.63 790.969,-1734.83 797.156,-1738.1"/>
<text text-anchor="middle" x="793.181" y="-1749.54" font-family="Times New Roman,serif" font-size="14.00">3</text>
</g>
<!-- 2800816611920 -->
<g id="node46" class="node"><title>2800816611920</title>
<ellipse fill="none" stroke="black" cx="1184.68" cy="-1709.74" rx="66.8882" ry="18"/>
<text text-anchor="middle" x="1184.68" y="-1706.04" font-family="Times New Roman,serif" font-size="14.00">OrderedChoice</text>
</g>
<!-- 2800816611776&#45;&gt;2800816611920 -->
<g id="edge60" class="edge"><title>2800816611776&#45;&gt;2800816611920</title>
<path fill="none" stroke="black" d="M824.948,-1783.2C904.98,-1767.08 1043.09,-1739.26 1122.89,-1723.19"/>
<polygon fill="black" stroke="black" points="1123.69,-1726.6 1132.8,-1721.19 1122.31,-1719.73 1123.69,-1726.6"/>
<text text-anchor="middle" x="1015.18" y="-1749.54" font-family="Times New Roman,serif" font-size="14.00">4</text>
</g>
<!-- 2800816612064 -->
<g id="node7" class="node"><title>2800816612064</title>
<ellipse fill="none" stroke="black" cx="531.681" cy="-1149" rx="61.99" ry="18"/>
<text text-anchor="middle" x="531.681" y="-1145.3" font-family="Times New Roman,serif" font-size="14.00">tag=Sequence</text>
</g>
<!-- 2800816611536&#45;&gt;2800816612064 -->
<g id="edge6" class="edge"><title>2800816611536&#45;&gt;2800816612064</title>
<path fill="none" stroke="black" d="M350.095,-1637.65C323.458,-1574.76 240.847,-1352.91 336.681,-1218 364.804,-1178.41 417.756,-1161.68 461.391,-1154.7"/>
<polygon fill="black" stroke="black" points="462.012,-1158.14 471.402,-1153.24 461.002,-1151.22 462.012,-1158.14"/>
<text text-anchor="middle" x="298.181" y="-1406.3" font-family="Times New Roman,serif" font-size="14.00">1</text>
</g>
<!-- 2800816612304 -->
<g id="node8" class="node"><title>2800816612304</title>
<ellipse fill="none" stroke="black" cx="775.681" cy="-279" rx="83.3857" ry="18"/>
<text text-anchor="middle" x="775.681" y="-275.3" font-family="Times New Roman,serif" font-size="14.00">space=ZeroOrMore</text>
</g>
<!-- 2800816612064&#45;&gt;2800816612304 -->
<g id="edge7" class="edge"><title>2800816612064&#45;&gt;2800816612304</title>
<path fill="none" stroke="black" d="M470.428,-1146.35C412.599,-1141.13 334.681,-1122.97 334.681,-1063 334.681,-1063 334.681,-1063 334.681,-495.5 334.681,-453.153 365.852,-452.666 388.681,-417 407.911,-386.955 401.103,-369.35 429.681,-348 441.619,-339.081 545.089,-318.028 559.681,-315 573.475,-312.137 643.811,-300.84 700.529,-291.844"/>
<polygon fill="black" stroke="black" points="701.254,-295.273 710.583,-290.251 700.159,-288.36 701.254,-295.273"/>
<text text-anchor="middle" x="338.181" y="-710.3" font-family="Times New Roman,serif" font-size="14.00">1</text>
</g>
<!-- 2800816612064&#45;&gt;2800816612304 -->
<g id="edge42" class="edge"><title>2800816612064&#45;&gt;2800816612304</title>
<path fill="none" stroke="black" d="M584.513,-1139.58C725.271,-1115.66 1098.68,-1041.89 1098.68,-932.5 1098.68,-932.5 1098.68,-932.5 1098.68,-365 1098.68,-316.347 959.888,-294.955 864.264,-285.99"/>
<polygon fill="black" stroke="black" points="864.558,-282.503 854.282,-285.085 863.925,-289.474 864.558,-282.503"/>
<text text-anchor="middle" x="1102.18" y="-710.3" font-family="Times New Roman,serif" font-size="14.00">4</text>
</g>
<!-- 2800816612352 -->
<g id="node10" class="node"><title>2800816612352</title>
<ellipse fill="none" stroke="black" cx="219.681" cy="-192" rx="219.861" ry="18"/>
<text text-anchor="middle" x="219.681" y="-188.3" font-family="Times New Roman,serif" font-size="14.00">string=RegExMatch([&gt;&lt;{}@_!#$%^&amp;*./\\0&#45;9a&#45;zA&#45;Z &#45;]*)</text>
</g>
<!-- 2800816612064&#45;&gt;2800816612352 -->
<g id="edge9" class="edge"><title>2800816612064&#45;&gt;2800816612352</title>
<path fill="none" stroke="black" d="M472.055,-1144.17C380.228,-1136.62 214.681,-1115.71 214.681,-1063 214.681,-1063 214.681,-1063 214.681,-278 214.681,-258.719 215.978,-237.021 217.252,-220.373"/>
<polygon fill="black" stroke="black" points="220.754,-220.489 218.071,-210.239 213.776,-219.924 220.754,-220.489"/>
<text text-anchor="middle" x="218.181" y="-666.8" font-family="Times New Roman,serif" font-size="14.00">2</text>
</g>
<!-- 2800816612016 -->
<g id="node11" class="node"><title>2800816612016</title>
<ellipse fill="none" stroke="black" cx="698.681" cy="-1062" rx="42.4939" ry="18"/>
<text text-anchor="middle" x="698.681" y="-1058.3" font-family="Times New Roman,serif" font-size="14.00">Optional</text>
</g>
<!-- 2800816612064&#45;&gt;2800816612016 -->
<g id="edge10" class="edge"><title>2800816612064&#45;&gt;2800816612016</title>
<path fill="none" stroke="black" d="M561.152,-1133C589.75,-1118.44 633.164,-1096.35 663.544,-1080.88"/>
<polygon fill="black" stroke="black" points="665.199,-1083.97 672.523,-1076.31 662.023,-1077.73 665.199,-1083.97"/>
<text text-anchor="middle" x="629.181" y="-1101.8" font-family="Times New Roman,serif" font-size="14.00">3</text>
</g>
<!-- 2800816612256 -->
<g id="node9" class="node"><title>2800816612256</title>
<ellipse fill="none" stroke="black" cx="786.681" cy="-192" rx="72.5877" ry="18"/>
<text text-anchor="middle" x="786.681" y="-188.3" font-family="Times New Roman,serif" font-size="14.00">RegExMatch(\t| )</text>
</g>
<!-- 2800816612304&#45;&gt;2800816612256 -->
<g id="edge8" class="edge"><title>2800816612304&#45;&gt;2800816612256</title>
<path fill="none" stroke="black" d="M777.907,-260.799C779.412,-249.163 781.433,-233.548 783.156,-220.237"/>
<polygon fill="black" stroke="black" points="786.645,-220.542 784.458,-210.175 779.703,-219.644 786.645,-220.542"/>
<text text-anchor="middle" x="786.181" y="-231.8" font-family="Times New Roman,serif" font-size="14.00">1</text>
</g>
<!-- 2800816612544 -->
<g id="node12" class="node"><title>2800816612544</title>
<ellipse fill="none" stroke="black" cx="772.681" cy="-975" rx="66.0889" ry="18"/>
<text text-anchor="middle" x="772.681" y="-971.3" font-family="Times New Roman,serif" font-size="14.00">args=Sequence</text>
</g>
<!-- 2800816612016&#45;&gt;2800816612544 -->
<g id="edge11" class="edge"><title>2800816612016&#45;&gt;2800816612544</title>
<path fill="none" stroke="black" d="M712.948,-1044.61C723.832,-1032.11 739,-1014.69 751.328,-1000.53"/>
<polygon fill="black" stroke="black" points="754.277,-1002.47 758.204,-992.629 748.998,-997.873 754.277,-1002.47"/>
<text text-anchor="middle" x="744.181" y="-1014.8" font-family="Times New Roman,serif" font-size="14.00">1</text>
</g>
<!-- 2800816612544&#45;&gt;2800816612304 -->
<g id="edge40" class="edge"><title>2800816612544&#45;&gt;2800816612304</title>
<path fill="none" stroke="black" d="M774.71,-956.945C780.989,-902.644 799.681,-728.879 799.681,-584.5 799.681,-584.5 799.681,-584.5 799.681,-365 799.681,-344.937 793.411,-323.178 787.281,-306.698"/>
<polygon fill="black" stroke="black" points="790.455,-305.207 783.539,-297.181 783.941,-307.768 790.455,-305.207"/>
<text text-anchor="middle" x="803.181" y="-623.3" font-family="Times New Roman,serif" font-size="14.00">3</text>
</g>
<!-- 2800816612736 -->
<g id="node13" class="node"><title>2800816612736</title>
<ellipse fill="none" stroke="black" cx="935.681" cy="-888" rx="135.376" ry="18"/>
<text text-anchor="middle" x="935.681" y="-884.3" font-family="Times New Roman,serif" font-size="14.00">beginTag=RegExMatch((?&lt;!\\|/)\[)</text>
</g>
<!-- 2800816612544&#45;&gt;2800816612736 -->
<g id="edge12" class="edge"><title>2800816612544&#45;&gt;2800816612736</title>
<path fill="none" stroke="black" d="M801.822,-958.804C827.767,-945.274 865.99,-925.342 894.956,-910.237"/>
<polygon fill="black" stroke="black" points="896.759,-913.244 904.008,-905.516 893.523,-907.037 896.759,-913.244"/>
<text text-anchor="middle" x="868.181" y="-927.8" font-family="Times New Roman,serif" font-size="14.00">1</text>
</g>
<!-- 2800816612400 -->
<g id="node14" class="node"><title>2800816612400</title>
<ellipse fill="none" stroke="black" cx="629.681" cy="-888" rx="55.4913" ry="18"/>
<text text-anchor="middle" x="629.681" y="-884.3" font-family="Times New Roman,serif" font-size="14.00">OneOrMore</text>
</g>
<!-- 2800816612544&#45;&gt;2800816612400 -->
<g id="edge13" class="edge"><title>2800816612544&#45;&gt;2800816612400</title>
<path fill="none" stroke="black" d="M746.452,-958.41C723.329,-944.665 689.474,-924.542 664.164,-909.497"/>
<polygon fill="black" stroke="black" points="665.646,-906.306 655.262,-904.205 662.069,-912.324 665.646,-906.306"/>
<text text-anchor="middle" x="714.181" y="-927.8" font-family="Times New Roman,serif" font-size="14.00">2</text>
</g>
<!-- 2800816612832 -->
<g id="node33" class="node"><title>2800816612832</title>
<ellipse fill="none" stroke="black" cx="1255.68" cy="-888" rx="128.877" ry="18"/>
<text text-anchor="middle" x="1255.68" y="-884.3" font-family="Times New Roman,serif" font-size="14.00">endTag=RegExMatch((?&lt;!\\|/)\])</text>
</g>
<!-- 2800816612544&#45;&gt;2800816612832 -->
<g id="edge41" class="edge"><title>2800816612544&#45;&gt;2800816612832</title>
<path fill="none" stroke="black" d="M826.681,-964.497C909.74,-949.88 1069.64,-921.741 1169.03,-904.25"/>
<polygon fill="black" stroke="black" points="1169.8,-907.667 1179.05,-902.486 1168.59,-900.773 1169.8,-907.667"/>
<text text-anchor="middle" x="1047.18" y="-927.8" font-family="Times New Roman,serif" font-size="14.00">4</text>
</g>
<!-- 2800816612784 -->
<g id="node15" class="node"><title>2800816612784</title>
<ellipse fill="none" stroke="black" cx="585.681" cy="-801" rx="105.082" ry="18"/>
<text text-anchor="middle" x="585.681" y="-797.3" font-family="Times New Roman,serif" font-size="14.00">argument=OrderedChoice</text>
</g>
<!-- 2800816612400&#45;&gt;2800816612784 -->
<g id="edge14" class="edge"><title>2800816612400&#45;&gt;2800816612784</title>
<path fill="none" stroke="black" d="M620.988,-870.207C614.761,-858.178 606.256,-841.748 599.154,-828.028"/>
<polygon fill="black" stroke="black" points="602.211,-826.321 594.506,-819.049 595.995,-829.539 602.211,-826.321"/>
<text text-anchor="middle" x="614.181" y="-840.8" font-family="Times New Roman,serif" font-size="14.00">1</text>
</g>
<!-- 2800816613024 -->
<g id="node16" class="node"><title>2800816613024</title>
<ellipse fill="none" stroke="black" cx="449.681" cy="-540" rx="83.6854" ry="18"/>
<text text-anchor="middle" x="449.681" y="-536.3" font-family="Times New Roman,serif" font-size="14.00">argString=Sequence</text>
</g>
<!-- 2800816612784&#45;&gt;2800816613024 -->
<g id="edge15" class="edge"><title>2800816612784&#45;&gt;2800816613024</title>
<path fill="none" stroke="black" d="M548.026,-783.981C500.276,-761.219 420.667,-714.419 391.681,-645 385.515,-630.235 386.148,-624.013 391.681,-609 397.901,-592.12 410.384,-576.583 422.18,-564.634"/>
<polygon fill="black" stroke="black" points="424.618,-567.145 429.374,-557.677 419.752,-562.113 424.618,-567.145"/>
<text text-anchor="middle" x="413.181" y="-666.8" font-family="Times New Roman,serif" font-size="14.00">1</text>
</g>
<!-- 2800816613264 -->
<g id="node29" class="node"><title>2800816613264</title>
<ellipse fill="none" stroke="black" cx="585.681" cy="-714" rx="96.6831" ry="18"/>
<text text-anchor="middle" x="585.681" y="-710.3" font-family="Times New Roman,serif" font-size="14.00">listOfStrings=Sequence</text>
</g>
<!-- 2800816612784&#45;&gt;2800816613264 -->
<g id="edge35" class="edge"><title>2800816612784&#45;&gt;2800816613264</title>
<path fill="none" stroke="black" d="M585.681,-782.799C585.681,-771.163 585.681,-755.548 585.681,-742.237"/>
<polygon fill="black" stroke="black" points="589.181,-742.175 585.681,-732.175 582.181,-742.175 589.181,-742.175"/>
<text text-anchor="middle" x="589.181" y="-753.8" font-family="Times New Roman,serif" font-size="14.00">2</text>
</g>
<!-- 2800816613120 -->
<g id="node17" class="node"><title>2800816613120</title>
<ellipse fill="none" stroke="black" cx="309.681" cy="-279" rx="66.8882" ry="18"/>
<text text-anchor="middle" x="309.681" y="-275.3" font-family="Times New Roman,serif" font-size="14.00">OrderedChoice</text>
</g>
<!-- 2800816613024&#45;&gt;2800816613120 -->
<g id="edge16" class="edge"><title>2800816613024&#45;&gt;2800816613120</title>
<path fill="none" stroke="black" d="M440.495,-522.006C416.614,-477.827 352.451,-359.125 323.816,-306.15"/>
<polygon fill="black" stroke="black" points="326.734,-304.189 318.9,-297.056 320.576,-307.518 326.734,-304.189"/>
<text text-anchor="middle" x="387.181" y="-405.8" font-family="Times New Roman,serif" font-size="14.00">1</text>
</g>
<!-- 2800816612976 -->
<g id="node25" class="node"><title>2800816612976</title>
<ellipse fill="none" stroke="black" cx="472.681" cy="-453" rx="42.4939" ry="18"/>
<text text-anchor="middle" x="472.681" y="-449.3" font-family="Times New Roman,serif" font-size="14.00">Optional</text>
</g>
<!-- 2800816613024&#45;&gt;2800816612976 -->
<g id="edge27" class="edge"><title>2800816613024&#45;&gt;2800816612976</title>
<path fill="none" stroke="black" d="M454.335,-521.799C457.515,-510.047 461.792,-494.238 465.417,-480.842"/>
<polygon fill="black" stroke="black" points="468.8,-481.743 468.033,-471.175 462.043,-479.914 468.8,-481.743"/>
<text text-anchor="middle" x="466.181" y="-492.8" font-family="Times New Roman,serif" font-size="14.00">2</text>
</g>
<!-- 2800816613120&#45;&gt;2800816612352 -->
<g id="edge26" class="edge"><title>2800816613120&#45;&gt;2800816612352</title>
<path fill="none" stroke="black" d="M292.328,-261.611C279.017,-249.04 260.438,-231.493 245.401,-217.291"/>
<polygon fill="black" stroke="black" points="247.58,-214.536 237.907,-210.214 242.774,-219.625 247.58,-214.536"/>
<text text-anchor="middle" x="274.181" y="-231.8" font-family="Times New Roman,serif" font-size="14.00">2</text>
</g>
<!-- 2800816613360 -->
<g id="node18" class="node"><title>2800816613360</title>
<ellipse fill="none" stroke="black" cx="576.681" cy="-192" rx="118.879" ry="18"/>
<text text-anchor="middle" x="576.681" y="-188.3" font-family="Times New Roman,serif" font-size="14.00">quotedString=OrderedChoice</text>
</g>
<!-- 2800816613120&#45;&gt;2800816613360 -->
<g id="edge17" class="edge"><title>2800816613120&#45;&gt;2800816613360</title>
<path fill="none" stroke="black" d="M340.888,-262.894C364.134,-252.08 396.872,-237.764 426.681,-228 449.149,-220.64 473.99,-214.189 496.885,-208.897"/>
<polygon fill="black" stroke="black" points="497.928,-212.249 506.907,-206.625 496.381,-205.423 497.928,-212.249"/>
<text text-anchor="middle" x="430.181" y="-231.8" font-family="Times New Roman,serif" font-size="14.00">1</text>
</g>
<!-- 2800816613648 -->
<g id="node19" class="node"><title>2800816613648</title>
<ellipse fill="none" stroke="black" cx="365.681" cy="-105" rx="120.479" ry="18"/>
<text text-anchor="middle" x="365.681" y="-101.3" font-family="Times New Roman,serif" font-size="14.00">singleQuotedString=Sequence</text>
</g>
<!-- 2800816613360&#45;&gt;2800816613648 -->
<g id="edge18" class="edge"><title>2800816613360&#45;&gt;2800816613648</title>
<path fill="none" stroke="black" d="M536.993,-175.012C502.474,-161.106 452.303,-140.895 415.17,-125.937"/>
<polygon fill="black" stroke="black" points="416.132,-122.551 405.548,-122.06 413.516,-129.044 416.132,-122.551"/>
<text text-anchor="middle" x="488.181" y="-144.8" font-family="Times New Roman,serif" font-size="14.00">1</text>
</g>
<!-- 2800816613792 -->
<g id="node22" class="node"><title>2800816613792</title>
<ellipse fill="none" stroke="black" cx="692.681" cy="-105" rx="124.578" ry="18"/>
<text text-anchor="middle" x="692.681" y="-101.3" font-family="Times New Roman,serif" font-size="14.00">doubleQuotedString=Sequence</text>
</g>
<!-- 2800816613360&#45;&gt;2800816613792 -->
<g id="edge22" class="edge"><title>2800816613360&#45;&gt;2800816613792</title>
<path fill="none" stroke="black" d="M599.598,-174.207C617.313,-161.226 642.022,-143.12 661.531,-128.825"/>
<polygon fill="black" stroke="black" points="663.813,-131.492 669.81,-122.758 659.675,-125.846 663.813,-131.492"/>
<text text-anchor="middle" x="645.181" y="-144.8" font-family="Times New Roman,serif" font-size="14.00">2</text>
</g>
<!-- 2800816613888 -->
<g id="node20" class="node"><title>2800816613888</title>
<ellipse fill="none" stroke="black" cx="173.681" cy="-18" rx="100.983" ry="18"/>
<text text-anchor="middle" x="173.681" y="-14.3" font-family="Times New Roman,serif" font-size="14.00">singleQuote=StrMatch(&#39;)</text>
</g>
<!-- 2800816613648&#45;&gt;2800816613888 -->
<g id="edge19" class="edge"><title>2800816613648&#45;&gt;2800816613888</title>
<path fill="none" stroke="black" d="M321.329,-88.1518C306.092,-82.4372 289.016,-75.7307 273.681,-69 253.55,-60.1648 231.659,-49.3608 213.505,-40.0593"/>
<polygon fill="black" stroke="black" points="214.873,-36.8266 204.381,-35.3505 211.662,-43.047 214.873,-36.8266"/>
<text text-anchor="middle" x="277.181" y="-57.8" font-family="Times New Roman,serif" font-size="14.00">1</text>
</g>
<!-- 2800816613648&#45;&gt;2800816613888 -->
<g id="edge21" class="edge"><title>2800816613648&#45;&gt;2800816613888</title>
<path fill="none" stroke="black" d="M340.414,-87.1863C323.9,-76.694 301.591,-63.437 280.681,-54 266.286,-47.5039 250.319,-41.6217 235.205,-36.6131"/>
<polygon fill="black" stroke="black" points="236.014,-33.1962 225.422,-33.4502 233.861,-39.8568 236.014,-33.1962"/>
<text text-anchor="middle" x="313.181" y="-57.8" font-family="Times New Roman,serif" font-size="14.00">3</text>
</g>
<!-- 2800816613600 -->
<g id="node21" class="node"><title>2800816613600</title>
<ellipse fill="none" stroke="black" cx="430.681" cy="-18" rx="137.576" ry="18"/>
<text text-anchor="middle" x="430.681" y="-14.3" font-family="Times New Roman,serif" font-size="14.00">RegExMatch((((?:\\|/)(?:\&#39;))|([^\&#39;]))*)</text>
</g>
<!-- 2800816613648&#45;&gt;2800816613600 -->
<g id="edge20" class="edge"><title>2800816613648&#45;&gt;2800816613600</title>
<path fill="none" stroke="black" d="M378.834,-86.799C388.173,-74.5865 400.863,-57.9921 411.351,-44.2776"/>
<polygon fill="black" stroke="black" points="414.252,-46.2451 417.546,-36.1754 408.692,-41.9929 414.252,-46.2451"/>
<text text-anchor="middle" x="406.181" y="-57.8" font-family="Times New Roman,serif" font-size="14.00">2</text>
</g>
<!-- 2800816614032 -->
<g id="node23" class="node"><title>2800816614032</title>
<ellipse fill="none" stroke="black" cx="692.681" cy="-18" rx="106.681" ry="18"/>
<text text-anchor="middle" x="692.681" y="-14.3" font-family="Times New Roman,serif" font-size="14.00">doubleQuote=StrMatch(&quot;)</text>
</g>
<!-- 2800816613792&#45;&gt;2800816614032 -->
<g id="edge23" class="edge"><title>2800816613792&#45;&gt;2800816614032</title>
<path fill="none" stroke="black" d="M685.109,-86.9975C681.709,-77.3808 678.831,-65.095 680.681,-54 681.13,-51.3012 681.763,-48.5315 682.504,-45.7893"/>
<polygon fill="black" stroke="black" points="685.873,-46.7429 685.539,-36.1534 679.197,-44.6403 685.873,-46.7429"/>
<text text-anchor="middle" x="684.181" y="-57.8" font-family="Times New Roman,serif" font-size="14.00">1</text>
</g>
<!-- 2800816613792&#45;&gt;2800816614032 -->
<g id="edge25" class="edge"><title>2800816613792&#45;&gt;2800816614032</title>
<path fill="none" stroke="black" d="M692.681,-86.799C692.681,-75.1626 692.681,-59.5479 692.681,-46.2368"/>
<polygon fill="black" stroke="black" points="696.181,-46.1754 692.681,-36.1754 689.181,-46.1755 696.181,-46.1754"/>
<text text-anchor="middle" x="696.181" y="-57.8" font-family="Times New Roman,serif" font-size="14.00">3</text>
</g>
<!-- 2800816613744 -->
<g id="node24" class="node"><title>2800816613744</title>
<ellipse fill="none" stroke="black" cx="958.681" cy="-18" rx="141.875" ry="18"/>
<text text-anchor="middle" x="958.681" y="-14.3" font-family="Times New Roman,serif" font-size="14.00">RegExMatch((((?:\\|/)(?:\&quot;))|([^\&quot;]))*)</text>
</g>
<!-- 2800816613792&#45;&gt;2800816613744 -->
<g id="edge24" class="edge"><title>2800816613792&#45;&gt;2800816613744</title>
<path fill="none" stroke="black" d="M741.469,-88.4097C785.95,-74.196 851.778,-53.1605 899.3,-37.9751"/>
<polygon fill="black" stroke="black" points="900.388,-41.3018 908.848,-34.9239 898.257,-34.634 900.388,-41.3018"/>
<text text-anchor="middle" x="845.181" y="-57.8" font-family="Times New Roman,serif" font-size="14.00">2</text>
</g>
<!-- 2800816613216 -->
<g id="node26" class="node"><title>2800816613216</title>
<ellipse fill="none" stroke="black" cx="484.681" cy="-366" rx="46.2923" ry="18"/>
<text text-anchor="middle" x="484.681" y="-362.3" font-family="Times New Roman,serif" font-size="14.00">Sequence</text>
</g>
<!-- 2800816612976&#45;&gt;2800816613216 -->
<g id="edge28" class="edge"><title>2800816612976&#45;&gt;2800816613216</title>
<path fill="none" stroke="black" d="M475.109,-434.799C476.752,-423.163 478.956,-407.548 480.835,-394.237"/>
<polygon fill="black" stroke="black" points="484.323,-394.567 482.256,-384.175 477.392,-393.588 484.323,-394.567"/>
<text text-anchor="middle" x="483.181" y="-405.8" font-family="Times New Roman,serif" font-size="14.00">1</text>
</g>
<!-- 2800816613216&#45;&gt;2800816612304 -->
<g id="edge29" class="edge"><title>2800816613216&#45;&gt;2800816612304</title>
<path fill="none" stroke="black" d="M520.363,-354.577C569.788,-340.141 659.632,-313.897 718.481,-296.708"/>
<polygon fill="black" stroke="black" points="719.752,-299.983 728.37,-293.819 717.79,-293.263 719.752,-299.983"/>
<text text-anchor="middle" x="651.181" y="-318.8" font-family="Times New Roman,serif" font-size="14.00">1</text>
</g>
<!-- 2800816613216&#45;&gt;2800816612304 -->
<g id="edge31" class="edge"><title>2800816613216&#45;&gt;2800816612304</title>
<path fill="none" stroke="black" d="M512.221,-351.458C535.767,-340.339 570.799,-324.869 602.681,-315 633.977,-305.312 669.307,-297.611 699.843,-291.928"/>
<polygon fill="black" stroke="black" points="700.79,-295.313 710.002,-290.078 699.536,-288.426 700.79,-295.313"/>
<text text-anchor="middle" x="606.181" y="-318.8" font-family="Times New Roman,serif" font-size="14.00">3</text>
</g>
<!-- 2800816613312 -->
<g id="node27" class="node"><title>2800816613312</title>
<ellipse fill="none" stroke="black" cx="450.681" cy="-279" rx="55.7903" ry="18"/>
<text text-anchor="middle" x="450.681" y="-275.3" font-family="Times New Roman,serif" font-size="14.00">StrMatch(=)</text>
</g>
<!-- 2800816613216&#45;&gt;2800816613312 -->
<g id="edge30" class="edge"><title>2800816613216&#45;&gt;2800816613312</title>
<path fill="none" stroke="black" d="M466.655,-349.161C461.553,-343.642 456.598,-337.05 453.681,-330 450.787,-323.009 449.514,-314.995 449.094,-307.461"/>
<polygon fill="black" stroke="black" points="452.592,-307.249 448.988,-297.286 445.592,-307.322 452.592,-307.249"/>
<text text-anchor="middle" x="457.181" y="-318.8" font-family="Times New Roman,serif" font-size="14.00">2</text>
</g>
<!-- 2800816613456 -->
<g id="node28" class="node"><title>2800816613456</title>
<ellipse fill="none" stroke="black" cx="591.681" cy="-279" rx="66.8882" ry="18"/>
<text text-anchor="middle" x="591.681" y="-275.3" font-family="Times New Roman,serif" font-size="14.00">OrderedChoice</text>
</g>
<!-- 2800816613216&#45;&gt;2800816613456 -->
<g id="edge32" class="edge"><title>2800816613216&#45;&gt;2800816613456</title>
<path fill="none" stroke="black" d="M504.306,-349.41C520.808,-336.3 544.615,-317.388 563.212,-302.615"/>
<polygon fill="black" stroke="black" points="565.432,-305.321 571.085,-296.361 561.078,-299.84 565.432,-305.321"/>
<text text-anchor="middle" x="548.181" y="-318.8" font-family="Times New Roman,serif" font-size="14.00">4</text>
</g>
<!-- 2800816613456&#45;&gt;2800816612352 -->
<g id="edge34" class="edge"><title>2800816613456&#45;&gt;2800816612352</title>
<path fill="none" stroke="black" d="M553.481,-264.202C521.748,-253.155 475.238,-237.919 433.681,-228 403.034,-220.685 369.554,-214.412 338.368,-209.282"/>
<polygon fill="black" stroke="black" points="338.761,-205.8 328.33,-207.657 337.642,-212.71 338.761,-205.8"/>
<text text-anchor="middle" x="490.181" y="-231.8" font-family="Times New Roman,serif" font-size="14.00">2</text>
</g>
<!-- 2800816613456&#45;&gt;2800816613360 -->
<g id="edge33" class="edge"><title>2800816613456&#45;&gt;2800816613360</title>
<path fill="none" stroke="black" d="M588.645,-260.799C586.592,-249.163 583.836,-233.548 581.487,-220.237"/>
<polygon fill="black" stroke="black" points="584.896,-219.415 579.711,-210.175 578.003,-220.632 584.896,-219.415"/>
<text text-anchor="middle" x="589.181" y="-231.8" font-family="Times New Roman,serif" font-size="14.00">1</text>
</g>
<!-- 2800816613552 -->
<g id="node30" class="node"><title>2800816613552</title>
<ellipse fill="none" stroke="black" cx="710.681" cy="-627" rx="53.0913" ry="18"/>
<text text-anchor="middle" x="710.681" y="-623.3" font-family="Times New Roman,serif" font-size="14.00">StrMatch([)</text>
</g>
<!-- 2800816613264&#45;&gt;2800816613552 -->
<g id="edge36" class="edge"><title>2800816613264&#45;&gt;2800816613552</title>
<path fill="none" stroke="black" d="M610.079,-696.409C629.936,-682.906 658.092,-663.76 679.569,-649.156"/>
<polygon fill="black" stroke="black" points="681.726,-651.922 688.027,-643.404 677.79,-646.133 681.726,-651.922"/>
<text text-anchor="middle" x="659.181" y="-666.8" font-family="Times New Roman,serif" font-size="14.00">1</text>
</g>
<!-- 2800816613072 -->
<g id="node31" class="node"><title>2800816613072</title>
<ellipse fill="none" stroke="black" cx="457.681" cy="-627" rx="57.3905" ry="18"/>
<text text-anchor="middle" x="457.681" y="-623.3" font-family="Times New Roman,serif" font-size="14.00">ZeroOrMore</text>
</g>
<!-- 2800816613264&#45;&gt;2800816613072 -->
<g id="edge37" class="edge"><title>2800816613264&#45;&gt;2800816613072</title>
<path fill="none" stroke="black" d="M560.697,-696.409C540.401,-682.931 511.639,-663.832 489.662,-649.238"/>
<polygon fill="black" stroke="black" points="491.571,-646.304 481.305,-643.688 487.699,-652.136 491.571,-646.304"/>
<text text-anchor="middle" x="533.181" y="-666.8" font-family="Times New Roman,serif" font-size="14.00">2</text>
</g>
<!-- 2800816613840 -->
<g id="node32" class="node"><title>2800816613840</title>
<ellipse fill="none" stroke="black" cx="585.681" cy="-627" rx="53.0913" ry="18"/>
<text text-anchor="middle" x="585.681" y="-623.3" font-family="Times New Roman,serif" font-size="14.00">StrMatch(])</text>
</g>
<!-- 2800816613264&#45;&gt;2800816613840 -->
<g id="edge39" class="edge"><title>2800816613264&#45;&gt;2800816613840</title>
<path fill="none" stroke="black" d="M585.681,-695.799C585.681,-684.163 585.681,-668.548 585.681,-655.237"/>
<polygon fill="black" stroke="black" points="589.181,-655.175 585.681,-645.175 582.181,-655.175 589.181,-655.175"/>
<text text-anchor="middle" x="589.181" y="-666.8" font-family="Times New Roman,serif" font-size="14.00">3</text>
</g>
<!-- 2800816613072&#45;&gt;2800816613024 -->
<g id="edge38" class="edge"><title>2800816613072&#45;&gt;2800816613024</title>
<path fill="none" stroke="black" d="M456.062,-608.799C454.966,-597.163 453.497,-581.548 452.244,-568.237"/>
<polygon fill="black" stroke="black" points="455.719,-567.803 451.297,-558.175 448.75,-568.459 455.719,-567.803"/>
<text text-anchor="middle" x="458.181" y="-579.8" font-family="Times New Roman,serif" font-size="14.00">1</text>
</g>
<!-- 2800816611872 -->
<g id="node35" class="node"><title>2800816611872</title>
<ellipse fill="none" stroke="black" cx="814.681" cy="-1592.87" rx="46.2923" ry="18"/>
<text text-anchor="middle" x="814.681" y="-1589.17" font-family="Times New Roman,serif" font-size="14.00">Sequence</text>
</g>
<!-- 2800816611728&#45;&gt;2800816611872 -->
<g id="edge44" class="edge"><title>2800816611728&#45;&gt;2800816611872</title>
<path fill="none" stroke="black" d="M808.744,-1691.29C809.876,-1672.72 811.683,-1643.06 813.007,-1621.34"/>
<polygon fill="black" stroke="black" points="816.515,-1621.3 813.63,-1611.1 809.528,-1620.87 816.515,-1621.3"/>
<text text-anchor="middle" x="816.181" y="-1652.04" font-family="Times New Roman,serif" font-size="14.00">1</text>
</g>
<!-- 2800816612112 -->
<g id="node36" class="node"><title>2800816612112</title>
<ellipse fill="none" stroke="black" cx="1009.68" cy="-1497" rx="51.9908" ry="18"/>
<text text-anchor="middle" x="1009.68" y="-1493.3" font-family="Times New Roman,serif" font-size="14.00">StrMatch(:)</text>
</g>
<!-- 2800816611872&#45;&gt;2800816612112 -->
<g id="edge45" class="edge"><title>2800816611872&#45;&gt;2800816612112</title>
<path fill="none" stroke="black" d="M842.619,-1578.42C876.404,-1562.16 933.441,-1534.7 971.326,-1516.46"/>
<polygon fill="black" stroke="black" points="973.028,-1519.53 980.52,-1512.04 969.991,-1513.22 973.028,-1519.53"/>
<text text-anchor="middle" x="939.181" y="-1536.8" font-family="Times New Roman,serif" font-size="14.00">1</text>
</g>
<!-- 2800816612592 -->
<g id="node37" class="node"><title>2800816612592</title>
<ellipse fill="none" stroke="black" cx="814.681" cy="-1497" rx="124.578" ry="18"/>
<text text-anchor="middle" x="814.681" y="-1493.3" font-family="Times New Roman,serif" font-size="14.00">textUntilNewLine=ZeroOrMore</text>
</g>
<!-- 2800816611872&#45;&gt;2800816612592 -->
<g id="edge46" class="edge"><title>2800816611872&#45;&gt;2800816612592</title>
<path fill="none" stroke="black" d="M814.681,-1574.65C814.681,-1560.89 814.681,-1541.34 814.681,-1525.43"/>
<polygon fill="black" stroke="black" points="818.181,-1525.11 814.681,-1515.11 811.181,-1525.11 818.181,-1525.11"/>
<text text-anchor="middle" x="818.181" y="-1536.8" font-family="Times New Roman,serif" font-size="14.00">2</text>
</g>
<!-- 2800816612640 -->
<g id="node38" class="node"><title>2800816612640</title>
<ellipse fill="none" stroke="black" cx="712.681" cy="-1410" rx="66.8882" ry="18"/>
<text text-anchor="middle" x="712.681" y="-1406.3" font-family="Times New Roman,serif" font-size="14.00">OrderedChoice</text>
</g>
<!-- 2800816612592&#45;&gt;2800816612640 -->
<g id="edge47" class="edge"><title>2800816612592&#45;&gt;2800816612640</title>
<path fill="none" stroke="black" d="M794.529,-1479.21C779.061,-1466.32 757.531,-1448.38 740.434,-1434.13"/>
<polygon fill="black" stroke="black" points="742.366,-1431.18 732.443,-1427.47 737.885,-1436.56 742.366,-1431.18"/>
<text text-anchor="middle" x="774.181" y="-1449.8" font-family="Times New Roman,serif" font-size="14.00">1</text>
</g>
<!-- 2800816612640&#45;&gt;2800816611776 -->
<g id="edge48" class="edge"><title>2800816612640&#45;&gt;2800816611776</title>
<path fill="none" stroke="black" d="M702.177,-1427.85C694.526,-1441.17 684.808,-1460.54 680.681,-1479 677.19,-1494.61 678.415,-1499.16 680.681,-1515 694.409,-1610.96 733.268,-1719.94 752.138,-1769.14"/>
<polygon fill="black" stroke="black" points="748.968,-1770.65 755.845,-1778.71 755.495,-1768.12 748.968,-1770.65"/>
<text text-anchor="middle" x="707.181" y="-1589.17" font-family="Times New Roman,serif" font-size="14.00">1</text>
</g>
<!-- 2800816612640&#45;&gt;2800816614080 -->
<g id="edge49" class="edge"><title>2800816612640&#45;&gt;2800816614080</title>
<path fill="none" stroke="black" d="M762.354,-1397.8C828.85,-1382.81 947.064,-1356.15 1021.75,-1339.31"/>
<polygon fill="black" stroke="black" points="1022.56,-1342.72 1031.54,-1337.11 1021.02,-1335.89 1022.56,-1342.72"/>
<text text-anchor="middle" x="928.181" y="-1362.8" font-family="Times New Roman,serif" font-size="14.00">2</text>
</g>
<!-- 2800816614176 -->
<g id="node44" class="node"><title>2800816614176</title>
<ellipse fill="none" stroke="black" cx="631.681" cy="-1323" rx="129.977" ry="18"/>
<text text-anchor="middle" x="631.681" y="-1319.3" font-family="Times New Roman,serif" font-size="14.00">plainTextUntilNewLine=Optional</text>
</g>
<!-- 2800816612640&#45;&gt;2800816614176 -->
<g id="edge58" class="edge"><title>2800816612640&#45;&gt;2800816614176</title>
<path fill="none" stroke="black" d="M696.678,-1392.21C684.774,-1379.72 668.347,-1362.48 654.987,-1348.46"/>
<polygon fill="black" stroke="black" points="657.36,-1345.87 647.928,-1341.05 652.292,-1350.7 657.36,-1345.87"/>
<text text-anchor="middle" x="681.181" y="-1362.8" font-family="Times New Roman,serif" font-size="14.00">3</text>
</g>
<!-- 2800816614080&#45;&gt;2800816612736 -->
<g id="edge50" class="edge"><title>2800816614080&#45;&gt;2800816612736</title>
<path fill="none" stroke="black" d="M1115.35,-1305.4C1135.33,-1290.25 1159.68,-1265.87 1159.68,-1237 1159.68,-1237 1159.68,-1237 1159.68,-1104.5 1159.68,-1008.06 1050.52,-941.249 984.605,-909.696"/>
<polygon fill="black" stroke="black" points="985.752,-906.369 975.212,-905.298 982.783,-912.708 985.752,-906.369"/>
<text text-anchor="middle" x="1163.18" y="-1101.8" font-family="Times New Roman,serif" font-size="14.00">1</text>
</g>
<!-- 2800816614080&#45;&gt;2800816612832 -->
<g id="edge57" class="edge"><title>2800816614080&#45;&gt;2800816612832</title>
<path fill="none" stroke="black" d="M1139.38,-1307.64C1171.63,-1294.93 1207.68,-1272.73 1207.68,-1237 1207.68,-1237 1207.68,-1237 1207.68,-974 1207.68,-951.631 1220.44,-929.732 1232.8,-913.766"/>
<polygon fill="black" stroke="black" points="1235.54,-915.944 1239.16,-905.986 1230.12,-911.514 1235.54,-915.944"/>
<text text-anchor="middle" x="1211.18" y="-1101.8" font-family="Times New Roman,serif" font-size="14.00">4</text>
</g>
<!-- 2800816613504 -->
<g id="node40" class="node"><title>2800816613504</title>
<ellipse fill="none" stroke="black" cx="936.681" cy="-1236" rx="55.4913" ry="18"/>
<text text-anchor="middle" x="936.681" y="-1232.3" font-family="Times New Roman,serif" font-size="14.00">OneOrMore</text>
</g>
<!-- 2800816614080&#45;&gt;2800816613504 -->
<g id="edge51" class="edge"><title>2800816614080&#45;&gt;2800816613504</title>
<path fill="none" stroke="black" d="M1060.54,-1305.81C1035.49,-1291.89 999.269,-1271.77 972.461,-1256.88"/>
<polygon fill="black" stroke="black" points="973.847,-1253.64 963.406,-1251.85 970.447,-1259.76 973.847,-1253.64"/>
<text text-anchor="middle" x="1026.18" y="-1275.8" font-family="Times New Roman,serif" font-size="14.00">2</text>
</g>
<!-- 2800816613936 -->
<g id="node41" class="node"><title>2800816613936</title>
<ellipse fill="none" stroke="black" cx="1089.68" cy="-1236" rx="42.4939" ry="18"/>
<text text-anchor="middle" x="1089.68" y="-1232.3" font-family="Times New Roman,serif" font-size="14.00">Optional</text>
</g>
<!-- 2800816614080&#45;&gt;2800816613936 -->
<g id="edge53" class="edge"><title>2800816614080&#45;&gt;2800816613936</title>
<path fill="none" stroke="black" d="M1089.68,-1304.8C1089.68,-1293.16 1089.68,-1277.55 1089.68,-1264.24"/>
<polygon fill="black" stroke="black" points="1093.18,-1264.18 1089.68,-1254.18 1086.18,-1264.18 1093.18,-1264.18"/>
<text text-anchor="middle" x="1093.18" y="-1275.8" font-family="Times New Roman,serif" font-size="14.00">3</text>
</g>
<!-- 2800816613504&#45;&gt;2800816612064 -->
<g id="edge52" class="edge"><title>2800816613504&#45;&gt;2800816612064</title>
<path fill="none" stroke="black" d="M895.806,-1223.73C888.143,-1221.74 880.183,-1219.74 872.681,-1218 775.362,-1195.39 661.351,-1173.6 592.907,-1161.01"/>
<polygon fill="black" stroke="black" points="593.202,-1157.51 582.735,-1159.15 591.94,-1164.39 593.202,-1157.51"/>
<text text-anchor="middle" x="793.181" y="-1188.8" font-family="Times New Roman,serif" font-size="14.00">1</text>
</g>
<!-- 2800816614224 -->
<g id="node42" class="node"><title>2800816614224</title>
<ellipse fill="none" stroke="black" cx="1079.68" cy="-1149" rx="46.2923" ry="18"/>
<text text-anchor="middle" x="1079.68" y="-1145.3" font-family="Times New Roman,serif" font-size="14.00">Sequence</text>
</g>
<!-- 2800816613936&#45;&gt;2800816614224 -->
<g id="edge54" class="edge"><title>2800816613936&#45;&gt;2800816614224</title>
<path fill="none" stroke="black" d="M1087.66,-1217.8C1086.29,-1206.16 1084.45,-1190.55 1082.88,-1177.24"/>
<polygon fill="black" stroke="black" points="1086.35,-1176.7 1081.7,-1167.18 1079.39,-1177.52 1086.35,-1176.7"/>
<text text-anchor="middle" x="1089.18" y="-1188.8" font-family="Times New Roman,serif" font-size="14.00">1</text>
</g>
<!-- 2800816614224&#45;&gt;2800816582320 -->
<g id="edge56" class="edge"><title>2800816614224&#45;&gt;2800816582320</title>
<path fill="none" stroke="black" d="M1070.92,-1166.71C1058.25,-1189.41 1032.77,-1229.9 1000.68,-1254 931.51,-1305.95 717.441,-1361 636.681,-1392 479.472,-1452.35 287.681,-1371.1 287.681,-1539.5 287.681,-1884.74 287.681,-1884.74 287.681,-1884.74 287.681,-1956.17 797.234,-1967.73 1004.02,-1969.48"/>
<polygon fill="black" stroke="black" points="1004.2,-1972.99 1014.23,-1969.56 1004.26,-1965.99 1004.2,-1972.99"/>
<text text-anchor="middle" x="291.181" y="-1536.8" font-family="Times New Roman,serif" font-size="14.00">2</text>
</g>
<!-- 2800816614320 -->
<g id="node43" class="node"><title>2800816614320</title>
<ellipse fill="none" stroke="black" cx="1079.68" cy="-1062" rx="51.9908" ry="18"/>
<text text-anchor="middle" x="1079.68" y="-1058.3" font-family="Times New Roman,serif" font-size="14.00">StrMatch(:)</text>
</g>
<!-- 2800816614224&#45;&gt;2800816614320 -->
<g id="edge55" class="edge"><title>2800816614224&#45;&gt;2800816614320</title>
<path fill="none" stroke="black" d="M1079.68,-1130.8C1079.68,-1119.16 1079.68,-1103.55 1079.68,-1090.24"/>
<polygon fill="black" stroke="black" points="1083.18,-1090.18 1079.68,-1080.18 1076.18,-1090.18 1083.18,-1090.18"/>
<text text-anchor="middle" x="1083.18" y="-1101.8" font-family="Times New Roman,serif" font-size="14.00">1</text>
</g>
<!-- 2800816614416 -->
<g id="node45" class="node"><title>2800816614416</title>
<ellipse fill="none" stroke="black" cx="604.681" cy="-1236" rx="258.854" ry="18"/>
<text text-anchor="middle" x="604.681" y="-1232.3" font-family="Times New Roman,serif" font-size="14.00">escapedTextUntilNewLine=RegExMatch((((?:\\|/)(?:\[|\]))|([^[\]\n]))+)</text>
</g>
<!-- 2800816614176&#45;&gt;2800816614416 -->
<g id="edge59" class="edge"><title>2800816614176&#45;&gt;2800816614416</title>
<path fill="none" stroke="black" d="M626.217,-1304.8C622.484,-1293.05 617.462,-1277.24 613.207,-1263.84"/>
<polygon fill="black" stroke="black" points="616.499,-1262.65 610.136,-1254.18 609.828,-1264.77 616.499,-1262.65"/>
<text text-anchor="middle" x="624.181" y="-1275.8" font-family="Times New Roman,serif" font-size="14.00">1</text>
</g>
<!-- 2800816611920&#45;&gt;2800816612832 -->
<g id="edge62" class="edge"><title>2800816611920&#45;&gt;2800816612832</title>
<path fill="none" stroke="black" d="M1202.96,-1692.42C1224,-1671.75 1255.68,-1633.96 1255.68,-1593.87 1255.68,-1593.87 1255.68,-1593.87 1255.68,-974 1255.68,-954.753 1255.68,-933.054 1255.68,-916.397"/>
<polygon fill="black" stroke="black" points="1259.18,-916.256 1255.68,-906.256 1252.18,-916.256 1259.18,-916.256"/>
<text text-anchor="middle" x="1259.18" y="-1275.8" font-family="Times New Roman,serif" font-size="14.00">2</text>
</g>
<!-- 2800816612208 -->
<g id="node47" class="node"><title>2800816612208</title>
<ellipse fill="none" stroke="black" cx="1175.68" cy="-1592.87" rx="51.7379" ry="26.7407"/>
<text text-anchor="middle" x="1175.68" y="-1596.67" font-family="Times New Roman,serif" font-size="14.00">StrMatch(</text>
<text text-anchor="middle" x="1175.68" y="-1581.67" font-family="Times New Roman,serif" font-size="14.00">)</text>
</g>
<!-- 2800816611920&#45;&gt;2800816612208 -->
<g id="edge61" class="edge"><title>2800816611920&#45;&gt;2800816612208</title>
<path fill="none" stroke="black" d="M1183.31,-1691.29C1182.05,-1675.15 1180.13,-1650.65 1178.53,-1630.25"/>
<polygon fill="black" stroke="black" points="1182,-1629.72 1177.73,-1620.03 1175.02,-1630.27 1182,-1629.72"/>
<text text-anchor="middle" x="1186.18" y="-1652.04" font-family="Times New Roman,serif" font-size="14.00">1</text>
</g>
<!-- 2800816611920&#45;&gt;2800816612928 -->
<g id="edge63" class="edge"><title>2800816611920&#45;&gt;2800816612928</title>
<path fill="none" stroke="black" d="M1229.6,-1696.34C1312.67,-1673.4 1488.75,-1624.78 1564.64,-1603.82"/>
<polygon fill="black" stroke="black" points="1565.95,-1607.09 1574.66,-1601.06 1564.09,-1600.34 1565.95,-1607.09"/>
<text text-anchor="middle" x="1446.18" y="-1652.04" font-family="Times New Roman,serif" font-size="14.00">3</text>
</g>
<!-- 2800816614464 -->
<g id="node50" class="node"><title>2800816614464</title>
<ellipse fill="none" stroke="black" cx="1471.68" cy="-1709.74" rx="202.264" ry="18"/>
<text text-anchor="middle" x="1471.68" y="-1706.04" font-family="Times New Roman,serif" font-size="14.00">escapedText=RegExMatch((((?:\\|/)(?:\[|\]))|([^[\]]))+)</text>
</g>
<!-- 2800816612688&#45;&gt;2800816614464 -->
<g id="edge66" class="edge"><title>2800816612688&#45;&gt;2800816614464</title>
<path fill="none" stroke="black" d="M1361.58,-1779.55C1382.63,-1766.4 1412.55,-1747.7 1435.89,-1733.11"/>
<polygon fill="black" stroke="black" points="1437.85,-1736.01 1444.48,-1727.74 1434.14,-1730.07 1437.85,-1736.01"/>
<text text-anchor="middle" x="1420.18" y="-1749.54" font-family="Times New Roman,serif" font-size="14.00">1</text>
</g>
</g>
</svg>
