<?xml version="1.0" encoding="UTF-8" standalone="no"?>
<!DOCTYPE svg PUBLIC "-//W3C//DTD SVG 1.1//EN"
 "http://www.w3.org/Graphics/SVG/1.1/DTD/svg11.dtd">
<!-- Generated by graphviz version 2.38.0 (20140413.2041)
 -->
<!-- Title: arpeggio_graph Pages: 1 -->
<svg width="1814pt" height="653pt"
 viewBox="0.00 0.00 1814.28 653.00" xmlns="http://www.w3.org/2000/svg" xmlns:xlink="http://www.w3.org/1999/xlink">
<g id="graph0" class="graph" transform="scale(1 1) rotate(0) translate(4 649)">
<title>arpeggio_graph</title>
<polygon fill="white" stroke="none" points="-4,4 -4,-649 1810.28,-649 1810.28,4 -4,4"/>
<!-- 2335940513984 -->
<g id="node1" class="node"><title>2335940513984</title>
<ellipse fill="none" stroke="black" cx="586.936" cy="-627" rx="59.5901" ry="18"/>
<text text-anchor="middle" x="586.936" y="-623.3" font-family="Times New Roman,serif" font-size="14.00">entrypoint [0]</text>
</g>
<!-- 2335940513856 -->
<g id="node2" class="node"><title>2335940513856</title>
<ellipse fill="none" stroke="black" cx="511.936" cy="-540" rx="36.2938" ry="18"/>
<text text-anchor="middle" x="511.936" y="-536.3" font-family="Times New Roman,serif" font-size="14.00">text [0]</text>
</g>
<!-- 2335940513984&#45;&gt;2335940513856 -->
<g id="edge1" class="edge"><title>2335940513984&#45;&gt;2335940513856</title>
<path fill="none" stroke="black" d="M572.118,-609.207C560.913,-596.507 545.379,-578.902 532.9,-564.76"/>
<polygon fill="black" stroke="black" points="535.202,-562.079 525.962,-556.896 529.954,-566.71 535.202,-562.079"/>
<text text-anchor="middle" x="557.436" y="-579.8" font-family="Times New Roman,serif" font-size="14.00">1</text>
</g>
<!-- 2335940473344 -->
<g id="node32" class="node"><title>2335940473344</title>
<ellipse fill="none" stroke="black" cx="611.936" cy="-540" rx="45.4919" ry="18"/>
<text text-anchor="middle" x="611.936" y="-536.3" font-family="Times New Roman,serif" font-size="14.00">EOF [67]</text>
</g>
<!-- 2335940513984&#45;&gt;2335940473344 -->
<g id="edge31" class="edge"><title>2335940513984&#45;&gt;2335940473344</title>
<path fill="none" stroke="black" d="M591.995,-608.799C595.451,-597.047 600.101,-581.238 604.041,-567.842"/>
<polygon fill="black" stroke="black" points="607.42,-568.757 606.884,-558.175 600.705,-566.781 607.42,-568.757"/>
<text text-anchor="middle" x="604.436" y="-579.8" font-family="Times New Roman,serif" font-size="14.00">2</text>
</g>
<!-- 2335938600768 -->
<g id="node3" class="node"><title>2335938600768</title>
<ellipse fill="none" stroke="black" cx="511.936" cy="-453" rx="66.0889" ry="18"/>
<text text-anchor="middle" x="511.936" y="-449.3" font-family="Times New Roman,serif" font-size="14.00">oneLineTag [0]</text>
</g>
<!-- 2335940513856&#45;&gt;2335938600768 -->
<g id="edge2" class="edge"><title>2335940513856&#45;&gt;2335938600768</title>
<path fill="none" stroke="black" d="M511.936,-521.799C511.936,-510.163 511.936,-494.548 511.936,-481.237"/>
<polygon fill="black" stroke="black" points="515.436,-481.175 511.936,-471.175 508.436,-481.175 515.436,-481.175"/>
<text text-anchor="middle" x="515.436" y="-492.8" font-family="Times New Roman,serif" font-size="14.00">1</text>
</g>
<!-- 2335940388896 -->
<g id="node4" class="node"><title>2335940388896</title>
<ellipse fill="none" stroke="black" cx="269.936" cy="-366" rx="100.182" ry="18"/>
<text text-anchor="middle" x="269.936" y="-362.3" font-family="Times New Roman,serif" font-size="14.00">beginOneLineTag &#39;[[&#39; [0]</text>
</g>
<!-- 2335938600768&#45;&gt;2335940388896 -->
<g id="edge3" class="edge"><title>2335938600768&#45;&gt;2335940388896</title>
<path fill="none" stroke="black" d="M473.054,-438.343C432.475,-424.09 368.566,-401.643 323.284,-385.738"/>
<polygon fill="black" stroke="black" points="324.228,-382.36 313.633,-382.348 321.908,-388.964 324.228,-382.36"/>
<text text-anchor="middle" x="409.436" y="-405.8" font-family="Times New Roman,serif" font-size="14.00">1</text>
</g>
<!-- 2335938598848 -->
<g id="node5" class="node"><title>2335938598848</title>
<ellipse fill="none" stroke="black" cx="422.936" cy="-366" rx="34.394" ry="18"/>
<text text-anchor="middle" x="422.936" y="-362.3" font-family="Times New Roman,serif" font-size="14.00">tag [2]</text>
</g>
<!-- 2335938600768&#45;&gt;2335938598848 -->
<g id="edge4" class="edge"><title>2335938600768&#45;&gt;2335938598848</title>
<path fill="none" stroke="black" d="M494.776,-435.611C481.011,-422.465 461.549,-403.877 446.352,-389.364"/>
<polygon fill="black" stroke="black" points="448.496,-386.572 438.847,-382.196 443.662,-391.634 448.496,-386.572"/>
<text text-anchor="middle" x="476.436" y="-405.8" font-family="Times New Roman,serif" font-size="14.00">2</text>
</g>
<!-- 2335940389232 -->
<g id="node7" class="node"><title>2335940389232</title>
<ellipse fill="none" stroke="black" cx="511.936" cy="-366" rx="36.2938" ry="18"/>
<text text-anchor="middle" x="511.936" y="-362.3" font-family="Times New Roman,serif" font-size="14.00"> &#39;:&#39; [13]</text>
</g>
<!-- 2335938600768&#45;&gt;2335940389232 -->
<g id="edge6" class="edge"><title>2335938600768&#45;&gt;2335940389232</title>
<path fill="none" stroke="black" d="M511.936,-434.799C511.936,-423.163 511.936,-407.548 511.936,-394.237"/>
<polygon fill="black" stroke="black" points="515.436,-394.175 511.936,-384.175 508.436,-394.175 515.436,-394.175"/>
<text text-anchor="middle" x="515.436" y="-405.8" font-family="Times New Roman,serif" font-size="14.00">3</text>
</g>
<!-- 2335938600640 -->
<g id="node8" class="node"><title>2335938600640</title>
<ellipse fill="none" stroke="black" cx="656.936" cy="-366" rx="90.1842" ry="18"/>
<text text-anchor="middle" x="656.936" y="-362.3" font-family="Times New Roman,serif" font-size="14.00">textUntilNewLine [14]</text>
</g>
<!-- 2335938600768&#45;&gt;2335938600640 -->
<g id="edge7" class="edge"><title>2335938600768&#45;&gt;2335938600640</title>
<path fill="none" stroke="black" d="M538.531,-436.41C561.496,-422.948 594.899,-403.367 620.376,-388.432"/>
<polygon fill="black" stroke="black" points="622.17,-391.437 629.027,-383.361 618.63,-385.398 622.17,-391.437"/>
<text text-anchor="middle" x="597.436" y="-405.8" font-family="Times New Roman,serif" font-size="14.00">4</text>
</g>
<!-- 2335940473232 -->
<g id="node31" class="node"><title>2335940473232</title>
<ellipse fill="none" stroke="black" cx="810.936" cy="-366" rx="45.4919" ry="18"/>
<text text-anchor="middle" x="810.936" y="-362.3" font-family="Times New Roman,serif" font-size="14.00">EOF [67]</text>
</g>
<!-- 2335938600768&#45;&gt;2335940473232 -->
<g id="edge30" class="edge"><title>2335938600768&#45;&gt;2335940473232</title>
<path fill="none" stroke="black" d="M557.464,-439.721C606.557,-426.385 686.952,-404.269 755.936,-384 759.451,-382.967 763.087,-381.882 766.737,-380.78"/>
<polygon fill="black" stroke="black" points="767.814,-384.111 776.36,-377.849 765.774,-377.414 767.814,-384.111"/>
<text text-anchor="middle" x="693.436" y="-405.8" font-family="Times New Roman,serif" font-size="14.00">5</text>
</g>
<!-- 2335940389120 -->
<g id="node6" class="node"><title>2335940389120</title>
<ellipse fill="none" stroke="black" cx="217.936" cy="-279" rx="112.38" ry="18"/>
<text text-anchor="middle" x="217.936" y="-275.3" font-family="Times New Roman,serif" font-size="14.00">string &#39;NANNASPRITE&#39; [2]</text>
</g>
<!-- 2335938598848&#45;&gt;2335940389120 -->
<g id="edge5" class="edge"><title>2335938598848&#45;&gt;2335940389120</title>
<path fill="none" stroke="black" d="M396.555,-354.062C363.618,-340.405 306.657,-316.787 265.911,-299.892"/>
<polygon fill="black" stroke="black" points="267.023,-296.564 256.445,-295.967 264.342,-303.03 267.023,-296.564"/>
<text text-anchor="middle" x="336.436" y="-318.8" font-family="Times New Roman,serif" font-size="14.00">1</text>
</g>
<!-- 2335938599488 -->
<g id="node9" class="node"><title>2335938599488</title>
<ellipse fill="none" stroke="black" cx="458.936" cy="-279" rx="110.48" ry="18"/>
<text text-anchor="middle" x="458.936" y="-275.3" font-family="Times New Roman,serif" font-size="14.00">plainTextUntilNewLine [14]</text>
</g>
<!-- 2335938600640&#45;&gt;2335938599488 -->
<g id="edge8" class="edge"><title>2335938600640&#45;&gt;2335938599488</title>
<path fill="none" stroke="black" d="M620.62,-349.41C588.373,-335.566 541.052,-315.252 505.928,-300.173"/>
<polygon fill="black" stroke="black" points="506.937,-296.798 496.367,-296.069 504.176,-303.23 506.937,-296.798"/>
<text text-anchor="middle" x="573.436" y="-318.8" font-family="Times New Roman,serif" font-size="14.00">1</text>
</g>
<!-- 2335938599872 -->
<g id="node11" class="node"><title>2335938599872</title>
<ellipse fill="none" stroke="black" cx="656.936" cy="-279" rx="69.5877" ry="18"/>
<text text-anchor="middle" x="656.936" y="-275.3" font-family="Times New Roman,serif" font-size="14.00">tagSelected [21]</text>
</g>
<!-- 2335938600640&#45;&gt;2335938599872 -->
<g id="edge10" class="edge"><title>2335938600640&#45;&gt;2335938599872</title>
<path fill="none" stroke="black" d="M656.936,-347.799C656.936,-336.163 656.936,-320.548 656.936,-307.237"/>
<polygon fill="black" stroke="black" points="660.436,-307.175 656.936,-297.175 653.436,-307.175 660.436,-307.175"/>
<text text-anchor="middle" x="660.436" y="-318.8" font-family="Times New Roman,serif" font-size="14.00">2</text>
</g>
<!-- 2335938600000 -->
<g id="node20" class="node"><title>2335938600000</title>
<ellipse fill="none" stroke="black" cx="977.936" cy="-279" rx="110.48" ry="18"/>
<text text-anchor="middle" x="977.936" y="-275.3" font-family="Times New Roman,serif" font-size="14.00">plainTextUntilNewLine [36]</text>
</g>
<!-- 2335938600640&#45;&gt;2335938600000 -->
<g id="edge19" class="edge"><title>2335938600640&#45;&gt;2335938600000</title>
<path fill="none" stroke="black" d="M708.867,-351.249C764.419,-336.539 852.637,-313.179 912.803,-297.247"/>
<polygon fill="black" stroke="black" points="913.809,-300.601 922.58,-294.658 912.017,-293.835 913.809,-300.601"/>
<text text-anchor="middle" x="839.436" y="-318.8" font-family="Times New Roman,serif" font-size="14.00">3</text>
</g>
<!-- 2335938600512 -->
<g id="node22" class="node"><title>2335938600512</title>
<ellipse fill="none" stroke="black" cx="1499.94" cy="-279" rx="69.5877" ry="18"/>
<text text-anchor="middle" x="1499.94" y="-275.3" font-family="Times New Roman,serif" font-size="14.00">tagSelected [41]</text>
</g>
<!-- 2335938600640&#45;&gt;2335938600512 -->
<g id="edge21" class="edge"><title>2335938600640&#45;&gt;2335938600512</title>
<path fill="none" stroke="black" d="M721.378,-353.294C733.182,-351.364 745.411,-349.505 756.936,-348 999.317,-316.354 1288.09,-294.413 1423.16,-285.065"/>
<polygon fill="black" stroke="black" points="1423.66,-288.539 1433.4,-284.361 1423.18,-281.556 1423.66,-288.539"/>
<text text-anchor="middle" x="1045.44" y="-318.8" font-family="Times New Roman,serif" font-size="14.00">4</text>
</g>
<!-- 2335940389344 -->
<g id="node10" class="node"><title>2335940389344</title>
<ellipse fill="none" stroke="black" cx="157.936" cy="-192" rx="157.872" ry="18"/>
<text text-anchor="middle" x="157.936" y="-188.3" font-family="Times New Roman,serif" font-size="14.00">escapedTextUntilNewLine &#39; Ponad &#39; [14]</text>
</g>
<!-- 2335938599488&#45;&gt;2335940389344 -->
<g id="edge9" class="edge"><title>2335938599488&#45;&gt;2335940389344</title>
<path fill="none" stroke="black" d="M406.161,-263.097C355.528,-248.798 278.895,-227.158 224.181,-211.707"/>
<polygon fill="black" stroke="black" points="224.806,-208.247 214.231,-208.897 222.904,-214.983 224.806,-208.247"/>
<text text-anchor="middle" x="330.436" y="-231.8" font-family="Times New Roman,serif" font-size="14.00">1</text>
</g>
<!-- 2335940389568 -->
<g id="node12" class="node"><title>2335940389568</title>
<ellipse fill="none" stroke="black" cx="404.936" cy="-192" rx="70.6878" ry="18"/>
<text text-anchor="middle" x="404.936" y="-188.3" font-family="Times New Roman,serif" font-size="14.00">beginTag &#39;[&#39; [21]</text>
</g>
<!-- 2335938599872&#45;&gt;2335940389568 -->
<g id="edge11" class="edge"><title>2335938599872&#45;&gt;2335940389568</title>
<path fill="none" stroke="black" d="M616.448,-264.343C572.675,-249.578 502.831,-226.02 455.485,-210.05"/>
<polygon fill="black" stroke="black" points="456.336,-206.643 445.741,-206.764 454.098,-213.276 456.336,-206.643"/>
<text text-anchor="middle" x="550.436" y="-231.8" font-family="Times New Roman,serif" font-size="14.00">1</text>
</g>
<!-- 2335938599616 -->
<g id="node13" class="node"><title>2335938599616</title>
<ellipse fill="none" stroke="black" cx="531.936" cy="-192" rx="38.1938" ry="18"/>
<text text-anchor="middle" x="531.936" y="-188.3" font-family="Times New Roman,serif" font-size="14.00">tag [22]</text>
</g>
<!-- 2335938599872&#45;&gt;2335938599616 -->
<g id="edge12" class="edge"><title>2335938599872&#45;&gt;2335938599616</title>
<path fill="none" stroke="black" d="M633.424,-262.012C612.946,-248.087 583.17,-227.839 561.163,-212.874"/>
<polygon fill="black" stroke="black" points="563.087,-209.95 552.849,-207.221 559.151,-215.738 563.087,-209.95"/>
<text text-anchor="middle" x="605.436" y="-231.8" font-family="Times New Roman,serif" font-size="14.00">2</text>
</g>
<!-- 2335940389904 -->
<g id="node15" class="node"><title>2335940389904</title>
<ellipse fill="none" stroke="black" cx="624.936" cy="-192" rx="36.2938" ry="18"/>
<text text-anchor="middle" x="624.936" y="-188.3" font-family="Times New Roman,serif" font-size="14.00"> &#39;:&#39; [28]</text>
</g>
<!-- 2335938599872&#45;&gt;2335940389904 -->
<g id="edge14" class="edge"><title>2335938599872&#45;&gt;2335940389904</title>
<path fill="none" stroke="black" d="M650.46,-260.799C646.007,-248.97 640.006,-233.03 634.942,-219.578"/>
<polygon fill="black" stroke="black" points="638.092,-218.011 631.293,-209.885 631.541,-220.477 638.092,-218.011"/>
<text text-anchor="middle" x="646.436" y="-231.8" font-family="Times New Roman,serif" font-size="14.00">3</text>
</g>
<!-- 2335938599360 -->
<g id="node16" class="node"><title>2335938599360</title>
<ellipse fill="none" stroke="black" cx="719.936" cy="-192" rx="40.8928" ry="18"/>
<text text-anchor="middle" x="719.936" y="-188.3" font-family="Times New Roman,serif" font-size="14.00">text [29]</text>
</g>
<!-- 2335938599872&#45;&gt;2335938599360 -->
<g id="edge15" class="edge"><title>2335938599872&#45;&gt;2335938599360</title>
<path fill="none" stroke="black" d="M669.383,-261.207C678.589,-248.786 691.272,-231.673 701.631,-217.697"/>
<polygon fill="black" stroke="black" points="704.587,-219.587 707.729,-209.469 698.963,-215.419 704.587,-219.587"/>
<text text-anchor="middle" x="696.436" y="-231.8" font-family="Times New Roman,serif" font-size="14.00">4</text>
</g>
<!-- 2335940390128 -->
<g id="node19" class="node"><title>2335940390128</title>
<ellipse fill="none" stroke="black" cx="842.936" cy="-192" rx="64.189" ry="18"/>
<text text-anchor="middle" x="842.936" y="-188.3" font-family="Times New Roman,serif" font-size="14.00">endTag &#39;]&#39; [35]</text>
</g>
<!-- 2335938599872&#45;&gt;2335940390128 -->
<g id="edge18" class="edge"><title>2335938599872&#45;&gt;2335940390128</title>
<path fill="none" stroke="black" d="M689.761,-262.999C720.933,-248.754 767.913,-227.285 801.619,-211.881"/>
<polygon fill="black" stroke="black" points="803.11,-215.048 810.75,-207.708 800.2,-208.682 803.11,-215.048"/>
<text text-anchor="middle" x="764.436" y="-231.8" font-family="Times New Roman,serif" font-size="14.00">5</text>
</g>
<!-- 2335940389792 -->
<g id="node14" class="node"><title>2335940389792</title>
<ellipse fill="none" stroke="black" cx="531.936" cy="-105" rx="77.1866" ry="18"/>
<text text-anchor="middle" x="531.936" y="-101.3" font-family="Times New Roman,serif" font-size="14.00">string &#39;under &#39; [22]</text>
</g>
<!-- 2335938599616&#45;&gt;2335940389792 -->
<g id="edge13" class="edge"><title>2335938599616&#45;&gt;2335940389792</title>
<path fill="none" stroke="black" d="M531.936,-173.799C531.936,-162.163 531.936,-146.548 531.936,-133.237"/>
<polygon fill="black" stroke="black" points="535.436,-133.175 531.936,-123.175 528.436,-133.175 535.436,-133.175"/>
<text text-anchor="middle" x="535.436" y="-144.8" font-family="Times New Roman,serif" font-size="14.00">1</text>
</g>
<!-- 2335938599744 -->
<g id="node17" class="node"><title>2335938599744</title>
<ellipse fill="none" stroke="black" cx="719.936" cy="-105" rx="61.99" ry="18"/>
<text text-anchor="middle" x="719.936" y="-101.3" font-family="Times New Roman,serif" font-size="14.00">plainText [29]</text>
</g>
<!-- 2335938599360&#45;&gt;2335938599744 -->
<g id="edge16" class="edge"><title>2335938599360&#45;&gt;2335938599744</title>
<path fill="none" stroke="black" d="M719.936,-173.799C719.936,-162.163 719.936,-146.548 719.936,-133.237"/>
<polygon fill="black" stroke="black" points="723.436,-133.175 719.936,-123.175 716.436,-133.175 723.436,-133.175"/>
<text text-anchor="middle" x="723.436" y="-144.8" font-family="Times New Roman,serif" font-size="14.00">1</text>
</g>
<!-- 2335940388672 -->
<g id="node18" class="node"><title>2335940388672</title>
<ellipse fill="none" stroke="black" cx="719.936" cy="-18" rx="110.48" ry="18"/>
<text text-anchor="middle" x="719.936" y="-14.3" font-family="Times New Roman,serif" font-size="14.00">escapedText &#39;Medium&#39; [29]</text>
</g>
<!-- 2335938599744&#45;&gt;2335940388672 -->
<g id="edge17" class="edge"><title>2335938599744&#45;&gt;2335940388672</title>
<path fill="none" stroke="black" d="M719.936,-86.799C719.936,-75.1626 719.936,-59.5479 719.936,-46.2368"/>
<polygon fill="black" stroke="black" points="723.436,-46.1754 719.936,-36.1754 716.436,-46.1755 723.436,-46.1754"/>
<text text-anchor="middle" x="723.436" y="-57.8" font-family="Times New Roman,serif" font-size="14.00">1</text>
</g>
<!-- 2335940390240 -->
<g id="node21" class="node"><title>2335940390240</title>
<ellipse fill="none" stroke="black" cx="1069.94" cy="-192" rx="144.874" ry="18"/>
<text text-anchor="middle" x="1069.94" y="-188.3" font-family="Times New Roman,serif" font-size="14.00">escapedTextUntilNewLine &#39;, za &#39; [36]</text>
</g>
<!-- 2335938600000&#45;&gt;2335940390240 -->
<g id="edge20" class="edge"><title>2335938600000&#45;&gt;2335940390240</title>
<path fill="none" stroke="black" d="M996.112,-261.207C1009.76,-248.599 1028.64,-231.158 1043.89,-217.068"/>
<polygon fill="black" stroke="black" points="1046.51,-219.406 1051.48,-210.049 1041.76,-214.265 1046.51,-219.406"/>
<text text-anchor="middle" x="1032.44" y="-231.8" font-family="Times New Roman,serif" font-size="14.00">1</text>
</g>
<!-- 2335940390464 -->
<g id="node23" class="node"><title>2335940390464</title>
<ellipse fill="none" stroke="black" cx="1303.94" cy="-192" rx="70.6878" ry="18"/>
<text text-anchor="middle" x="1303.94" y="-188.3" font-family="Times New Roman,serif" font-size="14.00">beginTag &#39;[&#39; [41]</text>
</g>
<!-- 2335938600512&#45;&gt;2335940390464 -->
<g id="edge22" class="edge"><title>2335938600512&#45;&gt;2335940390464</title>
<path fill="none" stroke="black" d="M1465.8,-263.194C1432.97,-248.96 1383.22,-227.385 1347.55,-211.913"/>
<polygon fill="black" stroke="black" points="1348.91,-208.689 1338.34,-207.921 1346.12,-215.111 1348.91,-208.689"/>
<text text-anchor="middle" x="1416.44" y="-231.8" font-family="Times New Roman,serif" font-size="14.00">1</text>
</g>
<!-- 2335938600128 -->
<g id="node24" class="node"><title>2335938600128</title>
<ellipse fill="none" stroke="black" cx="1430.94" cy="-192" rx="38.1938" ry="18"/>
<text text-anchor="middle" x="1430.94" y="-188.3" font-family="Times New Roman,serif" font-size="14.00">tag [42]</text>
</g>
<!-- 2335938600512&#45;&gt;2335938600128 -->
<g id="edge23" class="edge"><title>2335938600512&#45;&gt;2335938600128</title>
<path fill="none" stroke="black" d="M1486.3,-261.207C1476.06,-248.588 1461.89,-231.126 1450.44,-217.03"/>
<polygon fill="black" stroke="black" points="1453.09,-214.74 1444.07,-209.182 1447.66,-219.151 1453.09,-214.74"/>
<text text-anchor="middle" x="1472.44" y="-231.8" font-family="Times New Roman,serif" font-size="14.00">2</text>
</g>
<!-- 2335940390800 -->
<g id="node26" class="node"><title>2335940390800</title>
<ellipse fill="none" stroke="black" cx="1523.94" cy="-192" rx="36.2938" ry="18"/>
<text text-anchor="middle" x="1523.94" y="-188.3" font-family="Times New Roman,serif" font-size="14.00"> &#39;:&#39; [48]</text>
</g>
<!-- 2335938600512&#45;&gt;2335940390800 -->
<g id="edge25" class="edge"><title>2335938600512&#45;&gt;2335940390800</title>
<path fill="none" stroke="black" d="M1504.79,-260.799C1508.13,-248.97 1512.63,-233.03 1516.43,-219.578"/>
<polygon fill="black" stroke="black" points="1519.82,-220.46 1519.17,-209.885 1513.08,-218.558 1519.82,-220.46"/>
<text text-anchor="middle" x="1516.44" y="-231.8" font-family="Times New Roman,serif" font-size="14.00">3</text>
</g>
<!-- 2335938600384 -->
<g id="node27" class="node"><title>2335938600384</title>
<ellipse fill="none" stroke="black" cx="1618.94" cy="-192" rx="40.8928" ry="18"/>
<text text-anchor="middle" x="1618.94" y="-188.3" font-family="Times New Roman,serif" font-size="14.00">text [49]</text>
</g>
<!-- 2335938600512&#45;&gt;2335938600384 -->
<g id="edge26" class="edge"><title>2335938600512&#45;&gt;2335938600384</title>
<path fill="none" stroke="black" d="M1522.6,-261.812C1541.8,-248.096 1569.45,-228.35 1590.2,-213.526"/>
<polygon fill="black" stroke="black" points="1592.24,-216.368 1598.35,-207.707 1588.17,-210.672 1592.24,-216.368"/>
<text text-anchor="middle" x="1569.44" y="-231.8" font-family="Times New Roman,serif" font-size="14.00">4</text>
</g>
<!-- 2335940473120 -->
<g id="node30" class="node"><title>2335940473120</title>
<ellipse fill="none" stroke="black" cx="1741.94" cy="-192" rx="64.189" ry="18"/>
<text text-anchor="middle" x="1741.94" y="-188.3" font-family="Times New Roman,serif" font-size="14.00">endTag &#39;]&#39; [66]</text>
</g>
<!-- 2335938600512&#45;&gt;2335940473120 -->
<g id="edge29" class="edge"><title>2335938600512&#45;&gt;2335940473120</title>
<path fill="none" stroke="black" d="M1539.36,-264.154C1581.53,-249.341 1648.46,-225.834 1693.73,-209.93"/>
<polygon fill="black" stroke="black" points="1695.06,-213.175 1703.33,-206.559 1692.74,-206.571 1695.06,-213.175"/>
<text text-anchor="middle" x="1638.44" y="-231.8" font-family="Times New Roman,serif" font-size="14.00">5</text>
</g>
<!-- 2335940390688 -->
<g id="node25" class="node"><title>2335940390688</title>
<ellipse fill="none" stroke="black" cx="1430.94" cy="-105" rx="77.1866" ry="18"/>
<text text-anchor="middle" x="1430.94" y="-101.3" font-family="Times New Roman,serif" font-size="14.00">string &#39;under &#39; [42]</text>
</g>
<!-- 2335938600128&#45;&gt;2335940390688 -->
<g id="edge24" class="edge"><title>2335938600128&#45;&gt;2335940390688</title>
<path fill="none" stroke="black" d="M1430.94,-173.799C1430.94,-162.163 1430.94,-146.548 1430.94,-133.237"/>
<polygon fill="black" stroke="black" points="1434.44,-133.175 1430.94,-123.175 1427.44,-133.175 1434.44,-133.175"/>
<text text-anchor="middle" x="1434.44" y="-144.8" font-family="Times New Roman,serif" font-size="14.00">1</text>
</g>
<!-- 2335938600256 -->
<g id="node28" class="node"><title>2335938600256</title>
<ellipse fill="none" stroke="black" cx="1618.94" cy="-105" rx="61.99" ry="18"/>
<text text-anchor="middle" x="1618.94" y="-101.3" font-family="Times New Roman,serif" font-size="14.00">plainText [49]</text>
</g>
<!-- 2335938600384&#45;&gt;2335938600256 -->
<g id="edge27" class="edge"><title>2335938600384&#45;&gt;2335938600256</title>
<path fill="none" stroke="black" d="M1618.94,-173.799C1618.94,-162.163 1618.94,-146.548 1618.94,-133.237"/>
<polygon fill="black" stroke="black" points="1622.44,-133.175 1618.94,-123.175 1615.44,-133.175 1622.44,-133.175"/>
<text text-anchor="middle" x="1622.44" y="-144.8" font-family="Times New Roman,serif" font-size="14.00">1</text>
</g>
<!-- 2335940472896 -->
<g id="node29" class="node"><title>2335940472896</title>
<ellipse fill="none" stroke="black" cx="1618.94" cy="-18" rx="155.173" ry="18"/>
<text text-anchor="middle" x="1618.94" y="-14.3" font-family="Times New Roman,serif" font-size="14.00">escapedText &#39;Siedmioma Bramami&#39; [49]</text>
</g>
<!-- 2335938600256&#45;&gt;2335940472896 -->
<g id="edge28" class="edge"><title>2335938600256&#45;&gt;2335940472896</title>
<path fill="none" stroke="black" d="M1618.94,-86.799C1618.94,-75.1626 1618.94,-59.5479 1618.94,-46.2368"/>
<polygon fill="black" stroke="black" points="1622.44,-46.1754 1618.94,-36.1754 1615.44,-46.1755 1622.44,-46.1754"/>
<text text-anchor="middle" x="1622.44" y="-57.8" font-family="Times New Roman,serif" font-size="14.00">1</text>
</g>
</g>
</svg>
